<?xml version="1.0"?><svg version="1.2" baseProfile="tiny-ps" viewBox="0 0 300 300" xmlns="http://www.w3.org/2000/svg" xmlns:xlink="http://www.w3.org/1999/xlink"><title>Enjoy English</title><g><g fill="#eccb00" transform="matrix(.1 0 0 -.1 0 300)"><path d="M1490 2533c-8-3-23-12-32-21l-18-15v-243l16-22 15-22h68l15 22 16 22v241l-8 11c-7 10-47 35-54 33-2 0-10-3-18-6zm-465-125c-28-16-35-28-35-63v-30l18-26c38-59 86-125 105-146l20-23h57l20 20 20 20v55l-57 92-58 92-23 10c-29 14-42 13-67-1zm893 1c-21-11-85-104-117-167l-22-43 7-22c3-12 13-30 22-39l15-18h56l57 77c31 42 65 91 76 109l19 32-7 26-6 26-21 15c-25 17-54 19-79 4zM720 2107l-25-12-9-27-10-27 11-24 11-25 89-66 88-67 35 3 34 3 15 26 14 25-6 26-7 26-84 70-84 71-23 6-24 5-25-13zm1484-9c-17-13-56-45-87-72l-56-49-10-29-10-29 9-25 10-25 22-8 23-8 24 9c33 12 167 113 186 141l15 21v56l-20 20-20 20h-56l-30-22zm-785-12-66-11-79-39-79-39-56-58-55-58-31-58c-17-32-38-82-47-112l-16-55v-162l16-55c22-72 48-123 97-187l41-54 63-45 63-45 68-24 67-24h196l57 19c104 35 167 79 238 166 76 93 117 185 129 295l6 55-14 71-15 71-38 74-37 74-61 60-62 60-66 32c-65 32-120 47-208 57l-45 4-66-12zm-21-149 3-27-32-18c-18-9-57-39-86-66l-52-48-20-42c-11-22-26-70-33-106l-13-65-23-3-23-4-16 13-15 13 5 46c3 26 17 76 32 111l25 65 47 54c26 29 68 66 93 82l45 29 30-3 30-3 3-28zm-826-303-22-15v-69l20-20 20-20h231l24 25 25 24v23c0 13-7 34-16 46l-15 22H594l-22-16zm1589-10c-12-15-21-35-21-46v-19l25-24 24-25h222l18 10c10 5 24 23 31 40l13 31-20 27-20 27-126 3-125 3-21-27zM864 1300c-12-5-53-32-92-60l-71-51-10-31-11-30 15-34 14-34h72l83 64 82 65 13 27 12 27-11 28-12 27-21 6c-28 7-37 7-63-4zm1208-6-22-15v-68l91-76 91-75h67l15 22 16 22v54l-17 20c-10 11-53 46-97 76l-78 56h-22c-12 0-32-7-44-16zm-955-274c-14-11-48-56-76-99l-51-80v-71l21-21 21-21 32 6 31 6 10 16c6 8 36 54 67 102l57 87 1 28v27l-20 20-20 20h-47l-26-20zm686-6-25-25 5-29c6-29 93-168 129-207l21-23h48l24 26 25 27v44l-62 96-63 96-23 10c-35 16-50 13-79-15zm-313-71c-8-3-23-12-32-21l-18-15V641l26-20c34-27 50-26 79 4l25 24v260l-26 20c-28 22-30 23-54 14z"/></g><g fill="#ecb300" transform="matrix(.1 0 0 -.1 0 300)"><path d="m1562 2371-2-34-6 6-7 6-18-10-19-10 4-24 4-23-13-5-13-6 5 19 5 18-13 7-12 8 7-11 7-12h-40l-6-20-7-21 16-24 16-25h44l-12 12c-7 7-12 17-12 23v12l31 1c18 0 36 5 41 10l9 9-4 64-3 64-2-34zm-111-31v-35l11 23 11 23-11 11-12 12 1-34zm-399-7c1-5-3-18-10-30l-12-22 25-19c13-11 22-22 19-25-18-18 44-117 73-117h13v30h32l-7 28c-3 15-11 29-16 30-5 2-9 9-9 17 0 7-11 33-25 58l-25 45-23 6c-30 8-37 7-35-1zm-62-11c0-5 7-17 15-28l15-19-6 18-6 17h27l-15 10c-18 12-30 13-30 2zm807-109-19-5 7-26c4-15 13-35 22-44l15-17 23 11 23 10 4 28 4 28-18 11c-18 11-30 12-61 4zM687 2063c-23-22 17-86 70-113 15-8 47-31 70-52 24-21 47-38 53-38 14 0 34 20 42 42l7 16-35 17-34 16-10-6-10-6v13c-1 17-37 43-72 52-16 3-28 11-28 16 0 11-31 50-41 50-3 0-9-3-12-7zm1528-53-20-9 28 2c15 1 27 5 27 9 0 10-9 9-35-2zm-107-77-47-4-6-19-6-20 6-11c4-6 17-14 28-18l22-8 28 10 28 9-4 12c-2 6 2 17 10 24 16 17 17 33 1 30-7-1-34-3-60-5zm230-298c-3-3-34-7-69-10-36-3-78-9-94-13l-30-8-3-22-3-22 25-25 25-25h227l17 13c9 6 19 24 22 38l7 27-35 26-34 26h-25c-13 0-27-2-30-5zm-1610-10c-2-2-37-4-78-6s-81-5-87-7l-13-4v-58l20-20 20-20h221l20 10 19 11v59l-22 14c-21 13-93 28-100 21zm262-118c0-23 31-120 52-162 11-22 39-64 61-93l41-54 63-45 63-45 68-24 67-24h196l57 19c102 35 173 83 227 156 17 22 33 44 38 50 21 28 57 87 57 94 0 4 7 21 15 38 8 16 18 45 21 64l6 34-29-45c-33-50-120-128-172-153l-34-17-13 11-14 11v-23l-10 6-10 6v-20l-35-7c-19-3-38-10-41-15s-19-9-35-9h-30l6-10 6-10h-18c-11 0-24 5-31 12l-12 12v-23l-20 4-20 4v-24l-10 15-9 15-21-13-20-12-25 6-25 6v-34l-32 7c-37 8-72 24-65 31s67-8 67-17c0-5 4-9 10-9h10l-11 24-11 24-14-5-14-5v30l-22 6c-13 3-31 6-40 6h-18v-30h15c8 0 15-4 15-10 0-18-17-11-82 33l-63 42 3 19 3 18-10-7-11-6v10c0 6-6 11-13 11-18 0-81 67-101 108-18 34-26 40-26 19zm527-313c-3-3-12-4-19-1l-13 5 19 1c11 1 17-2 13-5zm-347 158c0-12 19-26 26-19 2 2-2 10-11 17l-15 12v-10zm880-107v-34l91-76 91-75h67l16 30c8 16 15 38 15 50v21l-32 30c-18 16-38 29-44 29s-22 9-36 19l-24 19-59 11c-32 6-65 11-72 11h-13v-35zm-1263-15-17-20h-37l-20-22c-11-13-23-31-26-41l-7-18 15-35 14-34h72l72 56 72 56 7 27c5 14 6 32 3 39l-4 12H804l-17-20zm342-203-24-12-57-85-58-85v-75l20-20c21-21 32-23 67-14l22 6 41 75c22 41 40 80 40 87s11 23 25 36l26 24-3 20c-2 10-10 22-18 26l-36 18-21 10-24-11zm666-21-17-26 6-25c7-28 95-167 128-202l21-23h48l24 26 25 27v43l-31 50c-17 27-39 56-48 65-15 15-31 37-50 67l-8 14-41 5-40 5-17-26zm-305-63c-8-3-23-12-32-21l-18-15V641l26-20c35-28 50-26 79 5l25 27v253l-30 22c-16 12-30 22-32 21-2 0-10-3-18-6z"/></g><g fill="#f09500" transform="matrix(.1 0 0 -.1 0 300)"><path d="M1005 1445c10-50 54-136 97-193l42-54 63-45 63-45 68-24 67-24h196l57 19c73 25 140 63 174 98l27 28 16 44 15 44-11 13-10 13-60-36c-83-48-143-73-213-90l-61-14-55 6c-178 20-363 126-463 265l-18 25 6-30zm1115-286c0-4 25-27 56-53l56-46h18c10 0 24 7 31 16l13 16-29 24c-17 13-35 24-40 24-6 0-16 5-22 11l-12 12-35 1c-20 1-36-2-36-5zm-1385-89c3-5 11-10 16-10h10l-6 10c-3 6-11 10-16 10h-10l6-10zm1130-188c-6-4-10-17-10-29l1-22 32-46 32-45h50l10 26c13 33 13 34-5 34-8 0-15 3-15 8 0 10-63 77-75 79-6 1-15-1-20-5zm-871-67c-4-8-3-26 0-40l6-24 19-10 18-10 16 12c9 7 19 24 22 38l6 25-26 12c-14 7-33 12-41 12h-15l-5-15zm446-81v-93l26-20c15-12 33-21 40-21h14v47l25 11 25 12v121l-10-6-11-7-17 8c-20 8-28 11-42 13-5 0-10 7-10 14v13h-40v-92z"/></g></g></svg>
