<?xml version="1.0" encoding="UTF-8"?>
<!-- Enjoy English - Tiny-PS compliant BIMI logo -->
<svg xmlns="http://www.w3.org/2000/svg" width="512" height="512" viewBox="0 0 512 512">
  <g fill="#FFC300" transform="translate(256,256)">
    <rect x="-12" y="-220" width="24" height="90" rx="12" ry="12" transform="rotate(0)"/>
    <rect x="-12" y="-220" width="24" height="90" rx="12" ry="12" transform="rotate(30)"/>
    <rect x="-12" y="-220" width="24" height="90" rx="12" ry="12" transform="rotate(60)"/>
    <rect x="-12" y="-220" width="24" height="90" rx="12" ry="12" transform="rotate(90)"/>
    <rect x="-12" y="-220" width="24" height="90" rx="12" ry="12" transform="rotate(120)"/>
    <rect x="-12" y="-220" width="24" height="90" rx="12" ry="12" transform="rotate(150)"/>
    <rect x="-12" y="-220" width="24" height="90" rx="12" ry="12" transform="rotate(180)"/>
    <rect x="-12" y="-220" width="24" height="90" rx="12" ry="12" transform="rotate(210)"/>
    <rect x="-12" y="-220" width="24" height="90" rx="12" ry="12" transform="rotate(240)"/>
    <rect x="-12" y="-220" width="24" height="90" rx="12" ry="12" transform="rotate(270)"/>
    <rect x="-12" y="-220" width="24" height="90" rx="12" ry="12" transform="rotate(300)"/>
    <rect x="-12" y="-220" width="24" height="90" rx="12" ry="12" transform="rotate(330)"/>
  </g>
  <circle cx="256" cy="256" r="140" fill="#FFD700"/>
</svg>
